<?xml version="1.0" encoding="UTF-8" standalone="no"?>
<!DOCTYPE svg PUBLIC "-//W3C//DTD SVG 1.1//EN" "http://www.w3.org/Graphics/SVG/1.1/DTD/svg11.dtd">
<svg width="100%" height="100%" viewBox="0 0 388 331" version="1.1" xmlns="http://www.w3.org/2000/svg" xmlns:xlink="http://www.w3.org/1999/xlink" xml:space="preserve" xmlns:serif="http://www.serif.com/" style="fill-rule:evenodd;clip-rule:evenodd;stroke-linejoin:round;stroke-miterlimit:2;">
    <g transform="matrix(1,0,0,1,-12.871956,-73.17682)">
        <g transform="matrix(1.720577,0,0,1.720577,12.871956,49.485337)">
            <path d="M0,21.094C0,25.098 3.32,28.516 7.227,28.516L40.234,28.516L55.859,135.742C57.91,149.609 65.234,158.301 79.394,158.301L193.359,158.301C197.168,158.301 200.488,155.176 200.488,150.977C200.488,146.777 197.168,143.652 193.359,143.652L81.055,143.652C75.488,143.652 72.07,139.746 71.191,133.789L69.629,123.535L193.555,123.535C207.812,123.535 215.137,114.746 217.188,100.781L225,49.121C225.195,47.852 225.391,46.289 225.391,45.41C225.391,40.723 221.875,37.5 216.504,37.5L57.129,37.5L55.176,25.098C54.199,17.578 51.465,13.77 41.504,13.77L7.227,13.77C3.32,13.77 0,17.188 0,21.094ZM71.191,189.941C71.191,198.828 78.223,205.762 87.109,205.762C95.898,205.762 102.93,198.828 102.93,189.941C102.93,181.152 95.898,174.121 87.109,174.121C78.223,174.121 71.191,181.152 71.191,189.941ZM162.5,189.941C162.5,198.828 169.629,205.762 178.418,205.762C187.305,205.762 194.336,198.828 194.336,189.941C194.336,181.152 187.305,174.121 178.418,174.121C169.629,174.121 162.5,181.152 162.5,189.941Z" style="fill:white;fill-opacity:0.85;fill-rule:nonzero;"/>
        </g>
    </g>
</svg>
