<?xml version="1.0" encoding="UTF-8" standalone="no"?>
<!DOCTYPE svg PUBLIC "-//W3C//DTD SVG 1.1//EN" "http://www.w3.org/Graphics/SVG/1.1/DTD/svg11.dtd">
<svg width="100%" height="100%" viewBox="0 0 494 453" version="1.1" xmlns="http://www.w3.org/2000/svg" xmlns:xlink="http://www.w3.org/1999/xlink" xml:space="preserve" xmlns:serif="http://www.serif.com/" style="fill-rule:evenodd;clip-rule:evenodd;stroke-linejoin:round;stroke-miterlimit:2;">
    <path d="M83.253,59.749C78.483,57.986 74.044,55.492 69.466,55.203C59.174,54.555 48.757,54.335 38.497,55.201C29.557,55.955 22.314,44.923 24.179,36.643C26.695,25.478 33.503,19.844 45.415,19.964C60.413,20.114 75.415,19.857 90.412,20.037C108.376,20.253 120.09,29.698 125.918,45.613C128.613,52.973 130.576,60.617 132.562,68.212C133.526,71.895 135.407,73.116 139.168,73.074C154.999,72.899 170.833,73 186.666,73C280.995,73 375.325,73.06 469.654,72.938C484.654,72.919 489.589,85.18 486.227,96.14C479.884,116.819 472.715,137.243 466.059,157.828C461.227,172.769 456.853,187.859 451.944,202.774C444.383,225.752 436.514,248.63 428.824,271.567C425.158,282.502 421.547,293.456 418.019,304.437C414.779,314.522 406.364,320.075 396.045,320.037C367.046,319.93 338.047,319.908 309.048,320.046C297.655,320.1 286.266,320.809 274.871,320.962C262.394,321.13 249.912,321 237.433,321C219.102,321 200.771,321 182.44,321C175.575,321.001 171.987,323.587 172,328.522C172.013,333.375 176.507,336.998 182.559,336.998C255.556,337.001 328.553,336.997 401.55,337.004C409.376,337.004 414.186,341.574 414,348.769C413.869,353.835 409.397,358.433 404.01,358.984C403.021,359.086 402.012,359 401.012,359C318.682,359 236.352,359.001 154.022,358.999C144.929,358.999 136.837,353.61 133.417,344.892C129.981,336.134 132.325,328.106 138.309,321.532C140.808,318.787 145.1,317.431 148.812,316.099C152.769,314.68 154.673,312.12 153.536,308.08C144.756,276.874 135.853,245.702 127.196,214.463C119.736,187.546 112.568,160.549 105.237,133.596C100.224,115.166 94.834,96.83 90.283,78.287C88.7,71.838 87.599,65.446 83.253,59.749M322.5,210C347.994,210 373.487,210.008 398.981,209.993C404.635,209.99 407.374,207.733 407.758,202.471C407.893,200.615 407.073,198.707 407.036,196.817C406.9,189.791 404.328,187.019 397.376,187.015C351.721,186.986 306.066,186.97 260.411,187.097C258.339,187.103 255.926,188.078 254.268,189.368C249.957,192.723 248.761,197.509 250.531,202.036C252.669,207.507 256.193,209.988 262.015,209.993C281.843,210.011 301.672,210 322.5,210M270.513,141C315.656,141 360.798,141.003 405.941,140.995C410.742,140.994 413.793,138.043 413.988,133.222C414.062,131.393 414.018,129.558 413.997,127.725C413.928,121.934 411.063,119.034 405.268,119.01C396.44,118.972 387.611,119 378.782,119C339.636,119 300.491,118.953 261.345,119.102C258.621,119.113 254.994,119.762 253.367,121.551C249.89,125.372 248.931,130.124 251.666,135.296C254.098,139.894 257.654,141.402 262.527,141.03C264.845,140.854 267.188,141 270.513,141M288.5,278L292.997,278C324.309,278 355.622,278.079 386.932,277.844C389.338,277.826 393.003,276.203 393.91,274.294C398.624,264.376 394.4,254.87 382.128,254.934C346.653,255.12 311.176,255 275.7,255C271.036,255 266.327,254.584 261.72,255.094C254.079,255.939 249.274,257.446 249.964,267.922C250.367,274.031 255.12,277.999 262.517,278C270.845,278.001 279.172,278 288.5,278M176.963,251.558C172.477,257.65 171.917,264.324 173.878,271.442C177.5,284.58 190.123,292.691 204.198,290.991C214.757,289.715 225.922,280.131 226.907,270.906C227.638,264.055 230.323,258.586 235.397,254C237.797,251.831 239.921,249.249 241.732,246.56C244.581,242.328 243.11,237.16 238.684,234.96C233.75,232.507 231.827,234.616 231.75,239.589C231.742,240.083 230.922,240.559 230.487,241.052C227.668,244.249 224.857,247.455 222.032,250.647C215.197,258.371 208.499,266.227 201.354,273.653C200.358,274.688 196.53,274.41 195.085,273.32C191.533,270.642 188.361,267.332 185.565,263.851C184.626,262.683 184.672,259.892 185.445,258.493C185.911,257.65 189.038,257.355 190.279,258.049C193.072,259.612 195.436,261.943 198.492,264.373C203.53,259.223 208.627,254.018 213.716,248.805C215.708,246.765 215.437,245.437 212.826,243.913C205.661,239.731 198.419,239.195 190.552,241.79C185.133,243.577 180.664,246.262 176.963,251.558M207.874,222.653C218.751,219.123 226.102,212.011 227.775,200.599C228.53,195.453 230.62,191.832 234.046,188.395C236.7,185.732 239.546,183.058 241.387,179.859C242.609,177.736 243.207,174.239 242.285,172.152C241.127,169.535 238.359,166.596 234.753,168.176C233.194,168.859 232.669,171.617 231.322,173.114C221.315,184.236 211.168,195.232 201.19,206.379C198.757,209.097 196.216,208.157 194.259,206.596C191.032,204.022 188.032,201.034 185.506,197.778C184.583,196.588 185.285,194.136 185.246,192.26C187.433,192.266 189.87,191.665 191.745,192.434C194.044,193.376 195.873,195.465 198.376,197.427C203.504,192.207 208.608,187.016 213.706,181.818C215.696,179.789 215.491,178.403 212.838,176.925C205.829,173.022 198.249,171.978 190.875,174.24C180.298,177.485 172.605,185.993 172.884,199.43C173.079,208.798 184.301,220.456 191.405,222.193C196.732,223.495 201.788,224.093 207.874,222.653M210.464,129.024C207.624,132.213 204.76,135.38 201.951,138.596C198.849,142.147 195.923,141.88 192.894,138.45C191.134,136.458 189.138,134.677 187.275,132.775C182.812,128.215 182.848,127.465 188.026,122.71C191.307,125.098 194.673,127.547 198.442,130.289C203.528,125.134 208.605,119.899 213.788,114.771C216.238,112.347 214.697,111.231 212.552,110.188C204.262,106.156 195.498,104.916 187.245,109.161C176.221,114.831 169.918,124.4 174.068,137.794C178.439,151.902 193.574,159.76 207.491,155.769C218.115,152.723 225.836,145.699 227.587,134.97C228.678,128.289 231.822,124.062 235.84,119.526C238.382,116.658 240.617,113.397 242.387,109.999C244.309,106.31 241.886,101.459 237.67,100.339C234.644,99.535 231.122,99.069 232.808,104.421C232.915,104.76 232.054,105.427 231.611,105.913C224.738,113.454 217.86,120.99 210.464,129.024Z" style="fill:white;fill-rule:nonzero;"/>
    <path d="M370.799,435.999C350.585,438.801 337.563,429.007 331.612,416.085C326.268,404.479 327.436,393.23 334.743,382.823C342.631,371.589 353.725,366.308 367.354,367.061C385.372,368.056 399.291,382.839 400.116,400.01C400.83,414.905 391.191,431.583 370.799,435.999Z" style="fill:white;fill-rule:nonzero;"/>
    <path d="M166.19,435.999C160.578,433.574 155.146,431.573 150.284,428.63C142.372,423.841 139.477,415.588 138.152,407.115C136.819,398.591 138.636,390.279 143.554,382.972C151.135,371.71 167.822,363.554 183.6,368.659C196.456,372.818 204.624,381.01 207.458,393.339C210.174,405.16 207.439,416.792 198.505,425.892C191.812,432.709 183.15,435.779 173.845,436.907C171.51,437.19 169.037,436.333 166.19,435.999Z" style="fill:white;fill-rule:nonzero;"/>
</svg>
